Complete name : UNSTOPPABLE.2010.CAM.XVID.LU
Format : AVI
Format/Info : Audio Video Interleave
File size : 1.38 GiB
Duration : 1h 32mn
Overall bit rate : 2 136 Kbps
Writing application : Nandub v1.0rc2
Writing library : VirtualDub build 32706/release

Video
ID : 0
Format : MPEG-4 Visual
Format profile : Advanced Simple@L5
Format settings, BVOP : Yes
Format settings, QPel : No
Format settings, GMC : No warppoints
Format settings, Matrix : Default (H.263)
Muxing mode : Packed bitstream
Codec ID : XVID
Codec ID/Hint : XviD
Duration : 1h 32mn
Bit rate : 1 998 Kbps
Width : 640 pixels
Height : 272 pixels
Display aspect ratio : 2.567
Frame rate : 25.000 fps
Color space : YUV
Chroma subsampling : 4:2:0
Bit depth : 8 bits
Scan type : Progressive
Bits/(Pixel*Frame) : 0.459
Stream size : 1.29 GiB (94%)
Writing library : XviD 1.2.1 (UTC 2008-12-04)

Audio
ID : 1
Format : MPEG Audio
Format version : Version 1
Format profile : Layer 3
Mode : Joint stereo
Mode extension : MS Stereo
Codec ID : 55
Codec ID/Hint : MP3
Duration : 1h 32mn
Bit rate mode : Constant
Bit rate : 128 Kbps
Channel(s) : 2 channels
Sampling rate : 44.1 KHz
Stream size : 84.6 MiB (6%)
Alignment : Split accross interleaves
Interleave, duration : 40 ms (1.00 video frame)
Interleave, preload duration : 500 ms
 
http://www.imdb.com/title/tt0477080/

READ NOTES
Unstoppable Ausser Kontrolle CAM German XViD-AOE ok thanks

ok video real nice for a cam and audio is our own english (LU) audio has glicth in it but syncing sucked because the frame rate on movie was strange it was good then slow then good then slow lol

NOW BIG THANKS TO BOOBIES FOR GETING IT OUR THERE FOR ME ( SHOW THEM TO ME )
WERE GOT LOT MORE FIRST CAMS IN THE WORKS SO YOU BE SEENING LOT MORE OF OUR WORK
P.S IF YOU DONT LIKE THEN MOVE A LONG. AS WE PAY FOR IT YOU NEVER







================================== 
http://thepiratebay.org/user/hiest
==================================

